<svg width="25" height="24" viewBox="0 0 25 24" fill="none" xmlns="http://www.w3.org/2000/svg">
<path d="M20.7373 15.9989C20.6591 15.9052 20.5823 15.8114 20.5069 15.7209C19.4702 14.4736 18.843 13.7208 18.843 10.1897C18.843 8.36156 18.4034 6.86156 17.5368 5.73656C16.8978 4.90547 16.0341 4.275 14.8956 3.80906C14.881 3.80096 14.8679 3.79032 14.857 3.77766C14.4475 2.41359 13.3269 1.5 12.0631 1.5C10.7993 1.5 9.67925 2.41359 9.26977 3.77625C9.25884 3.78845 9.24594 3.79875 9.2316 3.80672C6.57488 4.89469 5.28374 6.98203 5.28374 10.1883C5.28374 13.7208 4.65749 14.4736 3.61987 15.7195C3.54448 15.81 3.46767 15.9019 3.38945 15.9975C3.18739 16.2399 3.05937 16.5348 3.02054 16.8473C2.98171 17.1598 3.03369 17.4769 3.17033 17.7609C3.46107 18.3703 4.08072 18.7486 4.78802 18.7486H19.3434C20.0474 18.7486 20.6628 18.3708 20.9545 17.7642C21.0918 17.4801 21.1442 17.1628 21.1057 16.8499C21.0672 16.537 20.9394 16.2417 20.7373 15.9989ZM12.0631 22.5C12.7441 22.4995 13.4121 22.3156 13.9965 21.9679C14.5809 21.6202 15.0598 21.1217 15.3824 20.5252C15.3976 20.4966 15.4051 20.4646 15.4042 20.4322C15.4033 20.3999 15.394 20.3684 15.3772 20.3407C15.3604 20.313 15.3367 20.2901 15.3084 20.2742C15.2801 20.2583 15.2481 20.25 15.2156 20.25H8.91164C8.87909 20.2499 8.84707 20.2582 8.81869 20.274C8.79031 20.2899 8.76654 20.3128 8.74969 20.3405C8.73285 20.3682 8.72351 20.3997 8.72257 20.4321C8.72164 20.4645 8.72914 20.4965 8.74436 20.5252C9.06692 21.1216 9.54573 21.6201 10.13 21.9678C10.7143 22.3155 11.3823 22.4994 12.0631 22.5Z" fill="#006EE9"/>
</svg>
