<svg width="155" height="101" viewBox="0 0 155 101" fill="none" xmlns="http://www.w3.org/2000/svg">
<path d="M26 50.5C26 57.1317 27.3321 63.6986 29.9202 69.8255C32.5083 75.9524 36.3018 81.5195 41.084 86.2089C45.8662 90.8982 51.5435 94.618 57.7918 97.1559C64.0401 99.6938 70.7369 101 77.5 101C84.2631 101 90.9599 99.6938 97.2082 97.1559C103.456 94.6181 109.134 90.8982 113.916 86.2089C118.698 81.5195 122.492 75.9525 125.08 69.8255C127.668 63.6986 129 57.1318 129 50.5L77.5 50.5L26 50.5Z" fill="url(#paint0_linear_1004_1500)"/>
<path d="M11.04 36H6.85059V19.1982H0.537109V14.9941H17.3389V19.1982H11.04V36ZM31.2842 27.6064V23.4023C31.2842 22.8262 31.1719 22.2842 30.9473 21.7764C30.7324 21.2588 30.4346 20.8096 30.0537 20.4287C29.6729 20.0479 29.2236 19.75 28.7061 19.5352C28.1982 19.3105 27.6562 19.1982 27.0801 19.1982C26.5039 19.1982 25.957 19.3105 25.4395 19.5352C24.9316 19.75 24.4873 20.0479 24.1064 20.4287C23.7256 20.8096 23.4229 21.2588 23.1982 21.7764C22.9834 22.2842 22.876 22.8262 22.876 23.4023V27.6064H31.2842ZM35.4883 36H31.2842V31.7959H22.876V36H18.6865V23.4023C18.6865 22.2402 18.9062 21.1514 19.3457 20.1357C19.7852 19.1104 20.3809 18.2168 21.1328 17.4551C21.8945 16.6934 22.7832 16.0928 23.7988 15.6533C24.8242 15.2139 25.918 14.9941 27.0801 14.9941C28.2422 14.9941 29.3311 15.2139 30.3467 15.6533C31.3721 16.0928 32.2656 16.6934 33.0273 17.4551C33.7891 18.2168 34.3896 19.1104 34.8291 20.1357C35.2686 21.1514 35.4883 22.2402 35.4883 23.4023V36ZM37.9053 21.293C37.9053 20.4238 38.0713 19.6084 38.4033 18.8467C38.7354 18.085 39.1846 17.4209 39.751 16.8545C40.3271 16.2783 40.9961 15.8242 41.7578 15.4922C42.5195 15.1602 43.335 14.9941 44.2041 14.9941H53.8428V19.1982H44.2041C43.9111 19.1982 43.6377 19.252 43.3838 19.3594C43.1299 19.4668 42.9053 19.6182 42.71 19.8135C42.5244 19.999 42.3779 20.2188 42.2705 20.4727C42.1631 20.7266 42.1094 21 42.1094 21.293C42.1094 21.5859 42.1631 21.8643 42.2705 22.1279C42.3779 22.3818 42.5244 22.6064 42.71 22.8018C42.9053 22.9873 43.1299 23.1338 43.3838 23.2412C43.6377 23.3486 43.9111 23.4023 44.2041 23.4023H48.4082C49.2773 23.4023 50.0928 23.5684 50.8545 23.9004C51.626 24.2227 52.2949 24.6719 52.8613 25.248C53.4375 25.8145 53.8867 26.4834 54.209 27.2549C54.541 28.0166 54.707 28.832 54.707 29.7012C54.707 30.5703 54.541 31.3857 54.209 32.1475C53.8867 32.9092 53.4375 33.5781 52.8613 34.1543C52.2949 34.7207 51.626 35.1699 50.8545 35.502C50.0928 35.834 49.2773 36 48.4082 36H39.0771V31.7959H48.4082C48.7012 31.7959 48.9746 31.7422 49.2285 31.6348C49.4824 31.5273 49.7021 31.3809 49.8877 31.1953C50.083 31 50.2344 30.7754 50.3418 30.5215C50.4492 30.2676 50.5029 29.9941 50.5029 29.7012C50.5029 29.4082 50.4492 29.1348 50.3418 28.8809C50.2344 28.627 50.083 28.4072 49.8877 28.2217C49.7021 28.0264 49.4824 27.875 49.2285 27.7676C48.9746 27.6602 48.7012 27.6064 48.4082 27.6064H44.2041C43.335 27.6064 42.5195 27.4404 41.7578 27.1084C40.9961 26.7764 40.3271 26.3271 39.751 25.7607C39.1846 25.1846 38.7354 24.5156 38.4033 23.7539C38.0713 22.9824 37.9053 22.1621 37.9053 21.293ZM61.6797 36H57.4756V14.9941H61.6797V25.4971L69.502 14.9941H74.2773L67.6416 23.8564L74.2773 36H69.502L64.8877 27.5039L61.6797 31.7959V36ZM87.3877 23.4023V27.3867H75.083V23.4023H87.3877ZM111.982 29.9941C111.982 30.8633 111.816 31.6836 111.484 32.4551C111.162 33.2168 110.713 33.8857 110.137 34.4619C109.57 35.0283 108.901 35.4775 108.13 35.8096C107.368 36.1318 106.553 36.293 105.684 36.293C104.902 36.293 104.15 36.1562 103.428 35.8828C102.715 35.6094 102.07 35.209 101.494 34.6816C100.918 35.209 100.269 35.6094 99.5459 35.8828C98.8232 36.1562 98.0713 36.293 97.29 36.293C96.4209 36.293 95.6006 36.1318 94.8291 35.8096C94.0674 35.4775 93.3984 35.0283 92.8223 34.4619C92.2559 33.8857 91.8066 33.2168 91.4746 32.4551C91.1523 31.6836 90.9912 30.8633 90.9912 29.9941V14.9941H95.1953V29.9941C95.1953 30.2871 95.249 30.5654 95.3564 30.8291C95.4639 31.083 95.6104 31.3076 95.7959 31.5029C95.9912 31.6885 96.2158 31.835 96.4697 31.9424C96.7236 32.0498 96.9971 32.1035 97.29 32.1035C97.583 32.1035 97.8564 32.0498 98.1104 31.9424C98.3643 31.835 98.584 31.6885 98.7695 31.5029C98.9648 31.3076 99.1162 31.083 99.2236 30.8291C99.3311 30.5654 99.3848 30.2871 99.3848 29.9941V14.9941H103.589V29.9941C103.589 30.2871 103.643 30.5654 103.75 30.8291C103.857 31.083 104.004 31.3076 104.189 31.5029C104.385 31.6885 104.609 31.835 104.863 31.9424C105.117 32.0498 105.391 32.1035 105.684 32.1035C105.977 32.1035 106.25 32.0498 106.504 31.9424C106.758 31.835 106.978 31.6885 107.163 31.5029C107.358 31.3076 107.51 31.083 107.617 30.8291C107.734 30.5654 107.793 30.2871 107.793 29.9941V14.9941H111.982V29.9941ZM128.11 27.6064V23.4023C128.11 22.8262 127.998 22.2842 127.773 21.7764C127.559 21.2588 127.261 20.8096 126.88 20.4287C126.499 20.0479 126.05 19.75 125.532 19.5352C125.024 19.3105 124.482 19.1982 123.906 19.1982C123.33 19.1982 122.783 19.3105 122.266 19.5352C121.758 19.75 121.313 20.0479 120.933 20.4287C120.552 20.8096 120.249 21.2588 120.024 21.7764C119.81 22.2842 119.702 22.8262 119.702 23.4023V27.6064H128.11ZM132.314 36H128.11V31.7959H119.702V36H115.513V23.4023C115.513 22.2402 115.732 21.1514 116.172 20.1357C116.611 19.1104 117.207 18.2168 117.959 17.4551C118.721 16.6934 119.609 16.0928 120.625 15.6533C121.65 15.2139 122.744 14.9941 123.906 14.9941C125.068 14.9941 126.157 15.2139 127.173 15.6533C128.198 16.0928 129.092 16.6934 129.854 17.4551C130.615 18.2168 131.216 19.1104 131.655 20.1357C132.095 21.1514 132.314 22.2402 132.314 23.4023V36ZM152.764 36H148.267L140.166 22.1719V36H135.962V14.9941H140.459L148.56 28.8369V14.9941H152.764V36Z" fill="#006EE9"/>
<defs>
<linearGradient id="paint0_linear_1004_1500" x1="106.5" y1="89.7233" x2="32.1086" y2="74.9577" gradientUnits="userSpaceOnUse">
<stop offset="0.019257" stop-color="#002FD5"/>
<stop offset="1" stop-color="#6887F2"/>
</linearGradient>
</defs>
</svg>
